<?xml version="1.0" encoding="utf-8"?>
<!-- Generator: Adobe Illustrator 16.0.0, SVG Export Plug-In . SVG Version: 6.00 Build 0)  -->
<!DOCTYPE svg PUBLIC "-//W3C//DTD SVG 1.1//EN" "http://www.w3.org/Graphics/SVG/1.1/DTD/svg11.dtd">
<svg version="1.1" id="Layer_1" xmlns="http://www.w3.org/2000/svg" xmlns:xlink="http://www.w3.org/1999/xlink" x="0px" y="0px"
	 width="196.49px" height="184.49px" viewBox="0 0 196.49 184.49" enable-background="new 0 0 196.49 184.49" xml:space="preserve">
<path fill="#FFFFFF" stroke="#000000" stroke-miterlimit="10" d="M33.107,39.38c-5.171,4.562-0.883,3.336-0.883,10.332
	c0,1.825,2.696,2.65,3,4.475c0.304,2.129-1.479,4.954-1.175,6.475c0.608,3.955,4.479,6.083,6.304,9.733
	c2.129,5.475,2.05,4.456,6.612,5.977c1.217,0.304,5.146,4.681,5.45,4.681c1.521,0.608,4.058-3.054,5.579-3.054
	c2.129-0.304,2.129,0.913,4.562-0.608c1.521-0.913,1.825-3.346,3.346-4.562c6.083-4.562,8.424-4.604,15.419-7.646
	c3.346-1.521,6.779-2.346,9.821-4.475c2.433-1.521,5.778-2.433,6.994-5.17c1.218-3.042,6.307-2.277,8.74-5.015
	c0.912-1.217-1.763-4.997-0.546-5.91c1.825-1.521,0.019-3.979,1.54-5.5c-2.737-4.867-10.646-8.517-16.12-8.212
	c-3.649,0.304-6.083,2.129-9.732,1.825c-4.562-0.304-6.475-2.521-10.733-1c-7.604,3.042-6.47-1.673-13.77,2.586
	c-3.042,2.128-15.161,3.144-18.863,4.96C36.179,40.484,35.541,38.772,33.107,39.38"/>
<path d="M112.766,74.291c-0.337,0.514-0.871-1.111-2.956-1.119c0.315-2.079-1.311-1.615-1.555-3.238
	c-0.561-1.142-1.809-1.44-3.547-0.914c-1.513,0.183-1.115-2.595-2.286-2.802c-1.34,0.051-3.559,1.56-2.85-1.121
	c-1.172-0.332-2.856-2.394-2.668-2.862c0.252-0.385-0.229-0.342,1.667-3.241c0.272-0.617,3.127,1.745,3.853,1.724
	c-0.231,1.952,1.389,1.338,1.955,2.471c0.783,0.801,2.592,0.165,3.532,0.858c1.819-0.649,1.959,1.266,3.797,0.455
	c0.816,0.748,0.393,3.573,1.913,2.845c0.173,2.932,3.337,0.538,2.384,1.994C114.69,71.35,112.108,75.295,112.766,74.291z"/>
<g>
	<path fill="#FFFFFF" stroke="#000000" stroke-miterlimit="10" d="M-7.042,203.15"/>
</g>
<g>
	<path fill="none" d="M85.511,24.516l0.517,1.418c0.686-0.797,1.154-1.733,1.326-2.859C86.584,22.791,85.988,23.519,85.511,24.516z"
		/>
	<path fill="none" d="M67.924,35.042c-1.287,0.231-2.41,0.196-3.134-0.289c0.996,2.822,4.218,5.371,6.794,7.191l-2.84-6.612
		C68.471,35.235,68.197,35.137,67.924,35.042z"/>
	<path fill="none" d="M68.563,34.908c-0.216,0.051-0.43,0.096-0.639,0.134c0.272,0.095,0.547,0.193,0.82,0.29L68.563,34.908z"/>
	<path fill="none" d="M98.104,59.062c0.514-0.747,0.836-1.635,0.897-2.721c-0.596-0.009-1.324-0.225-2.091-0.556L98.104,59.062z"/>
	<path fill="none" d="M87.932,31.157c1.165-2.543,1.954-5.203,0.638-6.923c-0.449-0.674-0.851-1.026-1.216-1.16
		c-0.172,1.126-0.641,2.062-1.326,2.859L87.932,31.157z"/>
	<path fill="none" d="M98.755,53.864c-0.789,0.154-1.551,0.392-2.301,0.671l0.456,1.25c0.767,0.331,1.495,0.547,2.091,0.556
		C99.042,55.609,98.969,54.792,98.755,53.864z"/>
	<path fill="none" d="M98.755,53.864c0.214,0.928,0.287,1.745,0.246,2.477c0.56,0.008,1.005-0.163,1.236-0.625
		c0.555-1.296-3.333-3.333-4.074-3.889c-0.334-0.271-0.663-0.547-0.995-0.82l1.286,3.527C97.204,54.255,97.966,54.018,98.755,53.864
		z"/>
	<path fill="none" d="M87.354,23.074c0.116-0.756,0.11-1.59-0.081-2.543c-0.942,0.118-1.884,0.537-2.814,1.099l1.052,2.886
		C85.988,23.519,86.584,22.791,87.354,23.074z"/>
	<path fill="none" d="M79.584,64.135c-0.328,0.729-0.712,1.422-0.996,2.167c0.858,1.001,2.224,0.998,3.704,0.576l-1.377-3.207
		C80.478,63.844,80.034,63.998,79.584,64.135z"/>
	<path fill="none" d="M80.191,61.986c-0.08,0.791-0.312,1.491-0.607,2.148c0.45-0.137,0.894-0.291,1.331-0.465L80.191,61.986z"/>
	<path d="M131.917,154.511L89.104,37.062c-1.833,2.664-6.123,3.534-9.904,5.173c-1.411,0.564-3.776,2.034-5.908,2.643
		l48.879,113.818c0.611,1.423,2.918,5.175,7.354,3.81S132.529,155.933,131.917,154.511z"/>
	<path fill="#FFFFFF" stroke="#000000" stroke-miterlimit="10" d="M98.104,59.062l-1.629-4.444
		c-0.522-0.225-0.622,0.668-1.142,0.378c-4.953,2.233-9.254,6.62-14.419,8.674l1.377,3.207c2.132-0.608,4.498-2.078,5.908-2.643
		C91.981,62.596,96.271,61.725,98.104,59.062z"/>
	<path d="M73.015,42.938c-0.435-0.299-0.921-0.634-1.43-0.994l5.557,12.939c0.281-3.027,0.708-5.932,1.285-8.785
		C76.563,45.144,74.739,44.124,73.015,42.938z"/>
	<path fill="#FFFFFF" stroke="#000000" stroke-miterlimit="10" d="M83.752,42.216c-0.43,1.814-0.839,3.628-1.293,5.352
		c-0.032,0.151-0.075,0.296-0.112,0.445c3.309,1.55,6.644,3.048,9.741,4.925c0.468,0.312,1.79,1.245,3.245,2.058
		c0.37-0.167,0.743-0.321,1.121-0.461l-1.286-3.527c-3.531-2.902-6.964-5.9-10.857-8.439C84.13,42.445,83.937,42.336,83.752,42.216z
		"/>
	<path fill="#FFFFFF" stroke="#000000" stroke-miterlimit="10" d="M78.426,46.098c0.415-2.057,0.91-4.09,1.485-6.124
		c-3.564-1.847-7.397-3.313-11.167-4.643l2.84,6.612c0.509,0.36,0.995,0.694,1.43,0.994C74.739,44.124,76.563,45.144,78.426,46.098z
		"/>
	<path d="M84.459,21.629l-2.134-5.854c-0.738-1.716-2.736-5.985-11.44,1.145c-7.667,6.28-6.043,9.324-5.306,11.041l1.617,3.765
		c3.728-2.343,7.58-3.866,11.56-6.01C80.523,24.706,82.464,22.835,84.459,21.629z"/>
	<path fill="#FFFFFF" stroke="#000000" stroke-miterlimit="10" d="M84.429,27.359c0.023-0.054,1.23-0.421,1.645-1.287l-1.614-4.442
		c-1.995,1.206-3.936,3.076-5.704,4.086c-3.98,2.144-7.48,3.563-11.208,5.906l1.015,3.287c3.454-0.806,7.734-3.171,8.711-3.822
		C79.63,29.817,82.381,28.812,84.429,27.359z"/>
	<path d="M95.333,54.996c-1.455-0.812-2.777-1.746-3.245-2.058c-3.098-1.877-6.433-3.375-9.741-4.925
		c-0.599,2.403-1.762,4.521-2.11,6.962c-0.556,2.222,0,4.074,0,6.481c0,0.186-0.028,0.354-0.046,0.53l0.723,1.684
		C86.08,61.615,90.38,57.229,95.333,54.996z"/>
	<path d="M83.752,42.216c0.184,0.12,0.377,0.229,0.559,0.352c3.893,2.539,7.327,5.538,10.857,8.439l-7.236-19.85
		c-0.966,2.11-2.191,4.141-2.695,5.484C84.67,38.437,84.2,40.327,83.752,42.216z"/>
	<path fill="#FFFFFF" stroke="#000000" stroke-miterlimit="10" d="M83.752,42.216c0.448-1.889,0.918-3.78,1.485-5.575
		c0.504-1.344,1.729-3.374,2.695-5.484l-1.904-5.224c-0.453,0.526-0.995,0.996-1.6,1.425c-1.857,4.37-3.352,8.499-4.517,12.616"/>
	<path fill="#FFFFFF" stroke="#000000" stroke-miterlimit="10" d="M78.426,46.098c-0.577,2.854-1.004,5.758-1.285,8.785l3.05,7.103
		c0.018-0.175,0.046-0.344,0.046-0.53c0-2.407-0.556-4.259,0-6.481c0.349-2.442,1.511-4.559,2.11-6.962"/>
	<path d="M79.912,39.975c1.166-4.117,2.66-8.246,4.517-12.616c-2.047,1.453-4.798,2.458-7.155,3.728
		c-0.977,0.651-5.257,3.016-8.711,3.822l0.182,0.424C72.515,36.662,76.348,38.128,79.912,39.975z"/>
</g>
<g>
	<path fill="#FFFFFF" d="M132.216,118.685c0.341-0.659,0.643-1.334,0.898-2.009c0.161-0.427,0.272-0.858,0.333-1.291
		c-0.705,0.729-1.416,1.398-2.035,1.969c-0.598,0.546-1.263,1.109-2.036,1.723l-0.228,0.181l-0.271-0.109
		c-1.229-0.497-2.16-1.361-2.493-2.312l-0.073-0.208l0.104-0.194c0.377-0.704,0.793-1.392,1.236-2.071
		c-0.142,0.117-0.778,0.625-0.778,0.625l-0.315-0.322c-1.949-1.988-2.785-3.598-2.629-5.063c0.099-0.928,0.604-1.768,1.506-2.505
		c-0.697-0.543-1.296-1.121-1.785-1.725l-0.246-0.304l0.235-0.312c0.311-0.411,0.626-0.823,0.948-1.229
		c-0.337,0.266-0.676,0.53-1.016,0.79l-0.466,0.357l-0.278-0.517c-1.298-2.414-1.062-5.172,0.748-8.655
		c-1.191-0.985-2.083-2.18-2.721-3.641l-0.155-0.355l0.493-0.385c0.523-0.409,1.054-0.823,1.59-1.235
		c-0.592,0.224-1.203,0.459-1.837,0.708l-0.513,0.2l-0.15-0.529c-0.472-1.657-0.661-3.445-0.844-5.174
		c-0.091-0.853-0.182-1.71-0.306-2.559c-2.843-3.099-3.75-7.622-4.627-11.999l-0.215-1.066l0.321-0.177
		c0.413-0.227,0.885-0.342,1.401-0.342c2.277,0,5.016,2.231,6.913,4.102c1.636,1.614,3.321,3.613,5.011,5.942
		c1.737,2.394,3.438,5.097,5.057,8.033c3.175,5.603,8.676,18.292,6.749,26.185c-0.888,3.645-3.25,5.73-7.022,6.2l-0.941,0.117
		L132.216,118.685z"/>
	<path d="M116.015,69.449c1.7,0,4.016,1.446,6.562,3.958c1.594,1.572,3.276,3.562,4.958,5.879c1.683,2.319,3.362,4.967,5.023,7.981
		c3.568,6.297,8.484,18.518,6.701,25.825c-0.761,3.124-2.757,5.344-6.599,5.822c0.352-0.68,0.663-1.379,0.922-2.061
		c0.329-0.87,0.474-1.781,0.402-2.708c-0.189,0.034-0.463,0.416-0.558,0.537c-0.756,0.807-1.558,1.57-2.354,2.305
		c-0.652,0.596-1.325,1.156-2.008,1.698c-0.995-0.403-1.905-1.147-2.209-2.014c1.16-2.166,2.74-4.242,4.151-6.067
		c-1.372,1.342-2.701,2.607-4.092,3.713c-2.383-2.43-3.888-5.07-0.637-7.217c-0.929-0.651-1.665-1.331-2.24-2.041
		c1.7-2.253,3.582-4.532,5.687-5.874c-2.074,1.141-4.229,3.033-6.457,4.736c-1.301-2.42-0.869-5.214,0.944-8.551
		c-1.404-1.067-2.298-2.33-2.899-3.708c1.506-1.176,3.018-2.364,4.607-3.448c-1.694,0.588-3.427,1.237-5.157,1.915
		c-0.699-2.459-0.759-5.184-1.158-7.823c-2.985-3.162-3.843-8.083-4.751-12.577C115.199,69.541,115.587,69.449,116.015,69.449
		 M116.015,68.449L116.015,68.449c-0.602,0-1.154,0.136-1.642,0.404l-0.645,0.354l0.146,0.721l0.143,0.705
		c0.839,4.186,1.788,8.917,4.644,12.123c0.112,0.79,0.198,1.602,0.281,2.389c0.186,1.75,0.378,3.56,0.86,5.258l0.301,1.059
		l0.027-0.011l0.267,0.612c0.615,1.408,1.455,2.582,2.557,3.565c-1.7,3.44-1.884,6.315-0.565,8.768l0.556,1.034l0.067-0.051
		l0.251,0.311c0.401,0.495,0.872,0.974,1.406,1.43c-0.727,0.725-1.141,1.539-1.235,2.433c-0.228,2.136,1.472,4.143,2.77,5.466
		l0.278,0.284c-0.175,0.297-0.344,0.596-0.506,0.898l-0.207,0.388l0.146,0.415c0.379,1.084,1.418,2.06,2.777,2.61l0.54,0.219
		l0.457-0.362c0.781-0.621,1.456-1.191,2.06-1.743c0.209-0.192,0.427-0.395,0.651-0.607c-0.189,0.449-0.399,0.897-0.627,1.337
		l-0.871,1.686l1.883-0.234c3.943-0.491,6.519-2.765,7.447-6.578c1.963-8.044-3.592-20.887-6.803-26.555
		c-1.623-2.944-3.335-5.665-5.084-8.075c-1.706-2.351-3.41-4.371-5.065-6.004C120.423,69.878,117.98,68.45,116.015,68.449
		L116.015,68.449L116.015,68.449z"/>
</g>
<g>
	<g>
		<path d="M115.235,70.032c5.554,4.547,9.381,10.476,13.094,16.529c1.709,2.786,2.256,6.8,2.848,9.967
			c0.715,3.827,0.67,7.766,0.565,11.64c-0.018,0.645,0.982,0.644,1,0c0.192-7.1-0.229-14.806-3.173-21.395
			c-1.452-3.251-3.846-6.378-5.937-9.243c-2.223-3.044-4.773-5.818-7.69-8.206C115.448,68.92,114.736,69.623,115.235,70.032
			L115.235,70.032z"/>
	</g>
</g>
<g>
	<path fill="#FFFFFF" d="M101.923,121.798c-1.323,0-2.698-0.376-4.088-1.117l-0.84-0.448l0.845-0.438
		c0.636-0.33,1.272-0.708,1.891-1.124c0.377-0.257,0.716-0.545,1.015-0.864c-0.989,0.188-1.958,0.326-2.797,0.438
		c-0.818,0.104-1.686,0.181-2.659,0.236l-0.291,0.017l-0.158-0.245c-0.717-1.116-0.981-2.359-0.705-3.325l0.061-0.211l0.196-0.099
		c0.713-0.359,1.45-0.683,2.205-0.983c-0.183,0.014-0.997,0.063-0.997,0.063l-0.073-0.445c-0.443-2.72-0.21-4.505,0.736-5.618
		c0.615-0.724,1.524-1.132,2.705-1.216c-0.257-0.843-0.414-1.661-0.467-2.438l-0.026-0.39l0.373-0.12
		c0.48-0.154,0.977-0.309,1.482-0.458c-0.428,0.023-0.856,0.045-1.284,0.062l-0.587,0.023l0.07-0.583
		c0.331-2.723,2.112-4.842,5.596-6.646c-0.407-1.492-0.449-2.982-0.129-4.543l0.078-0.38l0.749-0.037
		c0.623-0.03,1.254-0.061,1.89-0.086c-0.615-0.159-1.25-0.318-1.911-0.48l-0.535-0.131l0.182-0.52
		c0.568-1.623,1.441-3.192,2.286-4.709c0.418-0.752,0.839-1.507,1.227-2.274c-0.539-4.168,1.322-8.384,3.123-12.464l0.443-1.007
		l0.365,0.041c2.146,0.24,3.747,2.959,4.632,7.864c0.408,2.275,0.636,4.88,0.675,7.743c0.042,2.952-0.123,6.141-0.492,9.479
		c-0.631,6.408-3.441,19.951-9.561,25.293C105.521,121.078,103.764,121.798,101.923,121.798z"/>
	<path d="M111.837,69.775c1.94,0.217,3.4,3.05,4.195,7.456c0.396,2.201,0.628,4.798,0.667,7.661
		c0.041,2.865-0.111,5.998-0.489,9.417c-0.709,7.203-3.728,20.026-9.393,24.972c-1.454,1.271-3.084,2.018-4.895,2.018
		c-1.205,0-2.489-0.331-3.853-1.059c0.679-0.352,1.335-0.746,1.94-1.153c0.769-0.523,1.412-1.183,1.889-1.983
		c-0.035-0.016-0.082-0.023-0.134-0.023c-0.208,0-0.514,0.105-0.632,0.141c-1.083,0.224-2.177,0.386-3.251,0.529
		c-0.876,0.111-1.749,0.183-2.621,0.232c-0.58-0.902-0.896-2.035-0.645-2.917c2.195-1.104,4.683-1.891,6.887-2.57
		c-1.895,0.308-3.709,0.575-5.483,0.678c-0.538-3.296-0.27-6.27,3.421-6.27c0.07,0,0.143,0.001,0.216,0.003
		c-0.386-1.066-0.596-2.046-0.658-2.959c2.508-0.805,5.155-1.537,7.524-1.537c0.171,0,0.341,0.004,0.509,0.012
		c-0.676-0.075-1.392-0.104-2.137-0.104c-1.85,0-3.874,0.177-5.871,0.257c0.331-2.729,2.291-4.764,5.696-6.448
		c-0.533-1.681-0.538-3.228-0.236-4.702c1.682-0.081,3.371-0.17,5.063-0.17c0.23,0,0.46,0.002,0.69,0.005
		c-1.725-0.495-3.515-0.962-5.318-1.405c0.845-2.413,2.365-4.675,3.557-7.062C107.858,78.488,109.993,73.972,111.837,69.775
		 M111.217,68.699l-0.295,0.673l-0.296,0.67c-1.723,3.902-3.668,8.312-3.18,12.575c-0.364,0.712-0.762,1.428-1.148,2.122
		c-0.854,1.535-1.738,3.123-2.321,4.787l-0.364,1.04l0.026,0.006l-0.134,0.653c-0.308,1.505-0.296,2.948,0.038,4.387
		c-3.37,1.833-5.175,4.078-5.511,6.843l-0.142,1.167l0.084-0.003l0.027,0.396c0.043,0.638,0.152,1.299,0.326,1.978
		c-1.032,0.178-1.852,0.62-2.446,1.319c-1.376,1.619-1.144,4.212-0.848,6.022l0.064,0.394c-0.313,0.142-0.624,0.29-0.93,0.444
		l-0.392,0.197l-0.12,0.422c-0.315,1.103-0.029,2.498,0.765,3.732l0.316,0.491l0.583-0.033c0.984-0.056,1.863-0.134,2.689-0.239
		c0.282-0.038,0.578-0.078,0.884-0.123c-0.423,0.264-0.852,0.509-1.281,0.731l-1.69,0.875l1.679,0.896
		c1.463,0.78,2.918,1.176,4.324,1.176c1.965,0,3.833-0.762,5.553-2.265c6.236-5.445,9.092-19.144,9.729-25.626
		c0.37-3.346,0.536-6.557,0.494-9.529c-0.039-2.89-0.27-5.522-0.683-7.824c-0.929-5.146-2.682-8.006-5.068-8.272L111.217,68.699
		L111.217,68.699z"/>
</g>
<g>
	<g>
		<path d="M111.985,70.29c1.078,3.895,1.492,7.854,1.554,11.886c0.056,3.67,0.112,7.763-0.805,11.329
			c-1.646,6.401-5.347,12.225-9.251,17.456c-0.386,0.518,0.482,1.015,0.863,0.505c4.142-5.549,7.798-11.654,9.54-18.427
			c0.873-3.396,0.657-7.38,0.652-10.862c-0.006-4.108-0.493-8.191-1.589-12.152C112.778,69.403,111.813,69.667,111.985,70.29
			L111.985,70.29z"/>
	</g>
</g>
<ellipse transform="matrix(0.893 -0.45 0.45 0.893 -13.7426 39.354)" stroke="#FFFFFF" stroke-miterlimit="10" cx="75.912" cy="48.585" rx="2.876" ry="11.859"/>
<rect x="50.404" y="42.401" transform="matrix(0.8984 -0.4392 0.4392 0.8984 -18.7876 28.5934)" width="4" height="25"/>
<g>
	<path fill="#FFFFFF" stroke="#000000" stroke-miterlimit="10" d="M34.56,43.844l6.788-2.532c4.735-1.26,8.052-2.394,9.898-2.482
		c1.849-0.088,3.412,0.16,4.686,0.741c1.276,0.585,2.274,1.343,2.988,2.287c0.716,0.941,1.805,2.873,3.266,5.797l5.403,10.82
		c1.385,2.773,2.152,4.668,2.299,5.69c0.149,1.019-0.04,1.898-0.568,2.637c-0.527,0.739-1.325,1.369-2.381,1.886
		c-1.06,0.522-15.219,8.288-15.219,8.288L34.56,43.844z M46.479,45.482l10.149,20.32c1.41-0.378,2.167-0.838,2.262-1.391
		c0.092-0.553-0.375-1.857-1.403-3.919l-5.997-12c-0.696-1.401-1.2-2.282-1.503-2.647c-0.306-0.365-0.701-0.589-1.18-0.669
		S47.552,45.196,46.479,45.482z"/>
	<path fill="#FFFFFF" stroke="#000000" stroke-miterlimit="10" d="M85.839,48.63c1.254,2.508,2.066,4.3,2.443,5.381
		c0.377,1.081,0.399,2.152,0.074,3.216c-0.328,1.064-1.021,2-2.083,2.807c-1.061,0.805-2.448,1.437-4.167,1.894
		c-1.629,0.435-3.199,0.607-4.716,0.517c-1.515-0.093-2.888-0.469-4.111-1.132c-1.226-0.663-2.17-1.488-2.834-2.475
		c-0.661-0.986-1.635-2.762-2.916-5.328l-2.132-4.269c-1.248-2.504-2.065-4.297-2.44-5.376c-0.375-1.082-0.4-2.153-0.072-3.219
		c0.325-1.063,1.022-1.999,2.081-2.806c1.061-0.805,2.448-1.438,4.166-1.896c1.629-0.433,3.203-0.603,4.717-0.513
		c1.517,0.091,2.886,0.468,4.112,1.131c1.225,0.662,2.169,1.486,2.831,2.474c0.662,0.985,1.634,2.761,2.918,5.33L85.839,48.63z
		 M73.835,42.545c-0.58-1.16-1.031-1.88-1.347-2.162c-0.32-0.282-0.723-0.357-1.212-0.228c-0.413,0.11-0.664,0.325-0.753,0.646
		c-0.087,0.321,0.189,1.124,0.829,2.406l5.816,11.644c0.722,1.448,1.241,2.323,1.555,2.622c0.311,0.3,0.732,0.382,1.258,0.242
		c0.538-0.143,0.787-0.431,0.742-0.862c-0.043-0.429-0.433-1.377-1.167-2.847L73.835,42.545z"/>
	<path fill="#FFFFFF" stroke="#000000" stroke-miterlimit="10" d="M97.587,33.759l6.98,15.061l-3.56,1.497L95.805,39.91L99.3,50.771
		l-3.033,0.808l-6.877-9.692l5.074,10.172l-4.278,1.139L82.488,37.78l6.332-1.686c0.65,0.876,1.389,1.917,2.216,3.122l2.655,3.737
		l-2.472-7.499L97.587,33.759z"/>
</g>
</svg>
